<svg width="54" height="54" viewBox="0 0 54 54" fill="none" xmlns="http://www.w3.org/2000/svg">
<path d="M0 12C0 5.37258 5.37258 0 12 0H42C48.6274 0 54 5.37258 54 12V42C54 48.6274 48.6274 54 42 54H12C5.37258 54 0 48.6274 0 42V12Z" fill="#F1F5FF"/>
<path d="M19.8364 36.6807V23.4807M19.8364 36.6807C19.8364 38.0062 18.827 39.0807 17.5818 39.0807H16.4546C15.2094 39.0807 14.2 38.0062 14.2 36.6807V23.4807C14.2 22.1552 15.2094 21.0807 16.4546 21.0807H17.5818C18.827 21.0807 19.8364 22.1552 19.8364 23.4807M19.8364 36.6807L20.138 36.9215C21.4102 37.9372 24.541 38.52 26.1298 38.5936L32.7475 38.8999C34.9894 39.0036 36.9617 37.3368 37.3753 34.989L38.3455 29.4807L39.2473 28.7607C40.0988 28.0808 40.6 27.0138 40.6 25.8807C40.6 23.8925 39.0859 22.2807 37.2182 22.2807H29.8909V16.5866C29.8909 14.9411 28.9806 13.45 27.5681 12.7817C26.2749 12.1699 24.8182 13.1777 24.8182 14.6842V16.754C24.8182 19.4571 21.9491 21.9813 19.8364 23.4807" stroke="#1D4ED8" stroke-width="2" stroke-linecap="round" stroke-linejoin="round"/>
</svg>
