<svg width="20" height="20" viewBox="0 0 20 20" fill="none" xmlns="http://www.w3.org/2000/svg">
<g id="Icon/database">
<path id="Vector" d="M17.75 9.5C17.75 9.08579 17.4142 8.75 17 8.75C16.5858 8.75 16.25 9.08579 16.25 9.5H17.75ZM3.75 9.5C3.75 9.08579 3.41421 8.75 3 8.75C2.58579 8.75 2.25 9.08579 2.25 9.5H3.75ZM16.25 6C16.25 6.0388 16.2301 6.17713 15.966 6.40007C15.7055 6.62008 15.284 6.852 14.6975 7.06146C13.531 7.47805 11.8703 7.75 10 7.75V9.25C11.9957 9.25 13.8349 8.96231 15.202 8.47407C15.8823 8.23112 16.4859 7.92434 16.9338 7.54615C17.3782 7.17091 17.75 6.65156 17.75 6H16.25ZM10 7.75C8.1297 7.75 6.46895 7.47805 5.3025 7.06146C4.71602 6.852 4.29451 6.62008 4.03396 6.40007C3.76993 6.17713 3.75 6.0388 3.75 6H2.25C2.25 6.65156 2.62183 7.17091 3.06623 7.54615C3.51411 7.92434 4.11774 8.23112 4.798 8.47407C6.16505 8.96231 8.00431 9.25 10 9.25V7.75ZM3.75 6C3.75 5.9612 3.76993 5.82287 4.03396 5.59993C4.29451 5.37992 4.71602 5.148 5.3025 4.93854C6.46895 4.52195 8.1297 4.25 10 4.25V2.75C8.00431 2.75 6.16505 3.03769 4.798 3.52593C4.11774 3.76888 3.51411 4.07566 3.06623 4.45385C2.62183 4.82909 2.25 5.34844 2.25 6H3.75ZM10 4.25C11.8703 4.25 13.531 4.52195 14.6975 4.93854C15.284 5.148 15.7055 5.37992 15.966 5.59993C16.2301 5.82287 16.25 5.9612 16.25 6H17.75C17.75 5.34844 17.3782 4.82909 16.9338 4.45385C16.4859 4.07566 15.8823 3.76888 15.202 3.52593C13.8349 3.03769 11.9957 2.75 10 2.75V4.25ZM16.25 9.5C16.25 9.66059 16.1772 9.8763 15.9161 10.1409C15.6518 10.4087 15.2321 10.6843 14.6543 10.932C13.5014 11.4261 11.8564 11.75 10 11.75V13.25C12.0096 13.25 13.8646 12.9024 15.2452 12.3107C15.9341 12.0154 16.5396 11.6446 16.9837 11.1946C17.431 10.7413 17.75 10.1678 17.75 9.5H16.25ZM10 11.75C8.14364 11.75 6.49861 11.4261 5.34569 10.932C4.7679 10.6843 4.34823 10.4087 4.08391 10.1409C3.82276 9.8763 3.75 9.66059 3.75 9.5H2.25C2.25 10.1678 2.56899 10.7413 3.01628 11.1946C3.4604 11.6446 4.06586 12.0154 4.75481 12.3107C6.13539 12.9024 7.99037 13.25 10 13.25V11.75ZM16.25 6V13.5H17.75V6H16.25ZM2.25 6V13.5H3.75V6H2.25ZM16.25 13.5C16.25 13.6606 16.1772 13.8763 15.9161 14.1409C15.6518 14.4087 15.2321 14.6843 14.6543 14.932C13.5014 15.4261 11.8564 15.75 10 15.75V17.25C12.0096 17.25 13.8646 16.9024 15.2452 16.3107C15.9341 16.0154 16.5396 15.6446 16.9837 15.1946C17.431 14.7413 17.75 14.1678 17.75 13.5H16.25ZM10 15.75C8.14364 15.75 6.49861 15.4261 5.34569 14.932C4.7679 14.6843 4.34823 14.4087 4.08391 14.1409C3.82276 13.8763 3.75 13.6606 3.75 13.5H2.25C2.25 14.1678 2.56899 14.7413 3.01628 15.1946C3.4604 15.6446 4.06586 16.0154 4.75481 16.3107C6.13539 16.9024 7.99037 17.25 10 17.25V15.75Z" fill="#18181B"/>
</g>
</svg>
