<svg width="24" height="24" viewBox="0 0 24 24" fill="none" xmlns="http://www.w3.org/2000/svg">
<g id="agency-icons/mini/police-pdrm">
<g id="Group 40">
<path id="Subtract" fill-rule="evenodd" clip-rule="evenodd" d="M12.0001 2.37207L11.8703 2.51809C11.2561 3.20905 10.4596 3.71286 9.57207 3.97171C8.38215 4.31877 7.10506 4.20361 5.99642 3.64929L5.73942 3.52079C5.64001 3.47108 5.523 3.47108 5.42359 3.52079L3.8872 4.28899C3.64541 4.40988 3.55482 4.70907 3.68894 4.94377C4.87874 7.02593 5.00623 9.55014 4.03226 11.7416L3.29621 13.3977C2.26708 15.7132 3.62296 18.39 6.09864 18.9303L8.81632 19.5233C10.1976 19.8247 11.3681 20.7353 12.0001 22C12.6329 20.7352 13.8039 19.8247 15.1856 19.5231L17.9017 18.9304C20.3773 18.39 21.7331 15.7133 20.704 13.3978L19.9679 11.7416C18.9939 9.55014 19.1214 7.02593 20.3112 4.94377C20.4453 4.70907 20.3547 4.40988 20.113 4.28899L18.5687 3.51688C18.4743 3.46964 18.363 3.46964 18.2686 3.51688L18.2064 3.54793C16.9724 4.16495 15.5438 4.26648 14.2349 3.83018C13.4687 3.57479 12.7725 3.14453 12.2015 2.57346L12.0001 2.37207ZM12.0001 17.3487C14.9541 17.3487 17.3489 14.954 17.3489 11.9999C17.3489 9.04586 14.9541 6.65112 12.0001 6.65112C9.04601 6.65112 6.65127 9.04586 6.65127 11.9999C6.65127 14.954 9.04601 17.3487 12.0001 17.3487Z" fill="#27272A"/>
<path id="Star 1" d="M11.7163 7.82638C11.809 7.55628 12.191 7.55628 12.2837 7.82638L13.1803 10.4377H16.0341C16.3287 10.4377 16.4469 10.818 16.2041 10.9849L13.9098 12.5623L14.7951 15.1405C14.889 15.414 14.5797 15.649 14.3414 15.4852L12 13.8754L9.65863 15.4852C9.42034 15.649 9.11102 15.414 9.20493 15.1405L10.0902 12.5623L7.79589 10.9849C7.55313 10.818 7.67125 10.4377 7.96586 10.4377H10.8197L11.7163 7.82638Z" fill="#27272A"/>
</g>
</g>
</svg>
