<svg width="24" height="24" viewBox="0 0 24 24" fill="none" xmlns="http://www.w3.org/2000/svg">
<g id="agency-icons/mini/internet-mcmc">
<g id="Group 37">
<circle id="Ellipse 11" cx="12" cy="12" r="9" stroke="#27272A" stroke-width="1.5"/>
<g id="Mask group">
<mask id="mask0_14447_1242" style="mask-type:alpha" maskUnits="userSpaceOnUse" x="3" y="3" width="18" height="18">
<circle id="Ellipse 12" cx="12" cy="12" r="9" fill="white"/>
</mask>
<g mask="url(#mask0_14447_1242)">
<g id="Group 24">
<path id="Vector 76" d="M12.0002 3.00122V21.0012" stroke="#27272A" stroke-width="1.5" stroke-linecap="round"/>
<path id="Vector 76_2" d="M3.00024 12.0012L21.0002 12.0012" stroke="#27272A" stroke-width="1.5" stroke-linecap="round"/>
<path id="Ellipse 12_2" d="M21.8182 0.545532C21.8182 4.61236 17.4225 7.90917 12.0001 7.90917C6.57763 7.90917 2.18188 4.61236 2.18188 0.545532" stroke="#27272A" stroke-width="1.5"/>
<path id="Ellipse 13" d="M21.8182 23.4544C21.8182 19.3876 17.4225 16.0908 12.0001 16.0908C6.57763 16.0908 2.18188 19.3876 2.18188 23.4544" stroke="#27272A" stroke-width="1.5"/>
<path id="Ellipse 12_3" d="M14.4542 21.8184C10.3874 21.8184 7.09058 17.4227 7.09058 12.0002C7.09058 6.57782 10.3874 2.18207 14.4542 2.18207" stroke="#27272A" stroke-width="1.5"/>
<path id="Ellipse 13_2" d="M9.5453 21.8193C13.6121 21.8193 16.9089 17.4235 16.9089 12.0011C16.9089 6.57867 13.6121 2.18292 9.5453 2.18292" stroke="#27272A" stroke-width="1.5"/>
</g>
</g>
</g>
</g>
</g>
</svg>
