<svg width="20" height="20" viewBox="0 0 20 20" fill="none" xmlns="http://www.w3.org/2000/svg">
<g id="Icon/setting">
<g id="Vector">
<path d="M13 10.3539C13 12.0107 11.6569 13.3539 10 13.3539C8.34315 13.3539 7 12.0107 7 10.3539C7 8.697 8.34315 7.35385 10 7.35385C11.6569 7.35385 13 8.697 13 10.3539Z" stroke="#18181B" stroke-width="1.5" stroke-linecap="round" stroke-linejoin="round"/>
<path d="M16.7824 5.59104C16.9054 5.95274 16.866 6.37394 16.5785 6.74552C15.5449 8.08176 15.9884 10.0293 17.4983 10.7869C17.8917 10.9842 18.1047 11.3147 18.1644 11.6674C18.1111 11.9944 18.0387 12.3151 17.9483 12.628C17.7376 12.9324 17.3917 13.15 16.9396 13.1602C15.2501 13.1986 13.9924 14.7599 14.3359 16.4145C14.4417 16.924 14.2447 17.3506 13.9158 17.6166C13.7447 17.7087 13.5701 17.795 13.392 17.8751C12.957 17.9814 12.4637 17.8712 12.1097 17.4551C11.0136 16.1663 8.98635 16.1663 7.89025 17.4551C7.5363 17.8713 7.04295 17.9814 6.60794 17.8751C6.42993 17.795 6.25527 17.7088 6.08423 17.6167C5.75532 17.3506 5.55832 16.924 5.66408 16.4145C6.00756 14.7599 4.74985 13.1986 3.06041 13.1602C2.60829 13.15 2.26233 12.9324 2.05169 12.628C1.96129 12.315 1.88887 11.9944 1.83563 11.6674C1.89524 11.3147 2.10828 10.9842 2.50165 10.7869C4.01161 10.0294 4.45505 8.08176 3.42146 6.74552C3.13402 6.37392 3.09463 5.95271 3.21758 5.591C3.3815 5.35673 3.55725 5.13135 3.74396 4.91573C4.06734 4.70644 4.48935 4.64228 4.92208 4.83515L5.00674 4.87288C6.55136 5.56131 8.3441 4.69542 8.76513 3.05758C9.09334 1.78081 10.9067 1.78082 11.2349 3.05758C11.6559 4.69542 13.4486 5.56131 14.9933 4.87288L15.0779 4.83515C15.5106 4.64229 15.9326 4.70644 16.256 4.9157C16.4427 5.13135 16.6185 5.35675 16.7824 5.59104Z" stroke="#18181B" stroke-width="1.5" stroke-linecap="round" stroke-linejoin="round"/>
</g>
</g>
</svg>
