<svg width="54" height="54" viewBox="0 0 54 54" fill="none" xmlns="http://www.w3.org/2000/svg">
<path d="M0 12C0 5.37258 5.37258 0 12 0H42C48.6274 0 54 5.37258 54 12V42C54 48.6274 48.6274 54 42 54H12C5.37258 54 0 48.6274 0 42V12Z" fill="#F1F5FF"/>
<path d="M24.6 29.88L24.6 28.44V25.0721L24.6 24.6518C24.6 23.6891 24.0247 22.8195 23.1387 22.443L17.4 19.8L19.8693 20.7877C24.4468 22.6187 29.5532 22.6187 34.1307 20.7877L36.6 19.8L30.84 22.443C29.954 22.8195 29.3787 23.6891 29.3787 24.6518V25.0721L29.3788 28.44L29.4031 29.88M24.6 29.88L23.16 39M24.6 29.88L25.4 29.4C26.3998 28.8134 27.6002 28.8134 28.6 29.4L29.4031 29.88M29.4031 29.88L30.84 39M28.6 16.6C28.6 17.4837 27.8837 18.2 27 18.2C26.1163 18.2 25.4 17.4837 25.4 16.6C25.4 15.7163 26.1163 15 27 15C27.8837 15 28.6 15.7163 28.6 16.6Z" stroke="#1D4ED8" stroke-width="2" stroke-linecap="round" stroke-linejoin="round"/>
</svg>
