<svg width="54" height="54" viewBox="0 0 54 54" fill="none" xmlns="http://www.w3.org/2000/svg">
<path d="M0 12C0 5.37258 5.37258 0 12 0H42C48.6274 0 54 5.37258 54 12V42C54 48.6274 48.6274 54 42 54H12C5.37258 54 0 48.6274 0 42V12Z" fill="#F1F5FF"/>
<path d="M30.2 25.8H23.8M30.2 25.8H35.8M30.2 25.8L30.4119 25.6587C32.4563 24.2958 32.2656 21.2328 30.068 20.134L28.7541 19.477C28.1348 19.1674 27.6326 18.6652 27.323 18.0459L27 17.4M23.8 25.8H18.2M23.8 25.8L23.5881 25.6587C21.5437 24.2958 21.7344 21.2328 23.932 20.134L25.246 19.477C25.8652 19.1674 26.3674 18.6652 26.677 18.0459L27 17.4M27 17.4V16.2M27 16.2V14.6L31 15.4L27 16.2Z" stroke="#2563EB" stroke-width="2" stroke-linecap="round" stroke-linejoin="round"/>
<path d="M13.8 39.4H40.2" stroke="#2563EB" stroke-width="2" stroke-linecap="round" stroke-linejoin="round"/>
<path d="M15.8 35.4V30.6M19.8 35.4V30.6M34.2 35.4V30.6M38.2 30.6V35.4M23.8 35.4V32.6C23.8 30.8327 25.2327 29.4 27 29.4C28.7673 29.4 30.2 30.8327 30.2 32.6V35.4" stroke="#2563EB" stroke-width="2" stroke-linecap="round" stroke-linejoin="round"/>
</svg>
