<svg width="20" height="20" viewBox="0 0 20 20" fill="none" xmlns="http://www.w3.org/2000/svg">
<g id="WYSIWYG Icon">
<path id="Vector" d="M5.18848 16.825V3.17505H10.2237C11.2771 3.17505 12.2281 3.50338 13.077 4.16005C13.9256 4.81672 14.35 5.70188 14.35 6.81555C14.35 7.56288 14.1736 8.18047 13.821 8.6683C13.4685 9.15613 13.0839 9.51513 12.6672 9.7453C13.1967 9.93813 13.6906 10.3041 14.149 10.8433C14.6073 11.3825 14.8365 12.0943 14.8365 12.9788C14.8365 14.2903 14.3484 15.2592 13.3722 15.8855C12.3961 16.5119 11.415 16.825 10.429 16.825H5.18848ZM7.48848 14.6828H10.3362C11.1287 14.6828 11.6836 14.4642 12.001 14.027C12.3183 13.5899 12.477 13.1706 12.477 12.7693C12.477 12.368 12.3141 11.9487 11.9885 11.5115C11.6628 11.0744 11.091 10.8558 10.273 10.8558H7.48848V14.6828ZM7.48848 8.82505H10.0827C10.6904 8.82505 11.1763 8.64713 11.5405 8.2913C11.9045 7.93563 12.0865 7.5238 12.0865 7.0558C12.0865 6.54047 11.8975 6.1193 11.5195 5.7923C11.1413 5.46547 10.6777 5.30205 10.1287 5.30205H7.48848V8.82505Z" fill="#18181B"/>
</g>
</svg>
