<svg width="20" height="20" viewBox="0 0 20 20" fill="none" xmlns="http://www.w3.org/2000/svg">
<g id="WYSIWYG Icon">
<path id="Vector" d="M7.30773 15.75V14.45H17.9V15.75H7.30773ZM7.30773 10.65V9.35002H17.9V10.65H7.30773ZM7.30773 5.55002V4.25002H17.9V5.55002H7.30773ZM3.55823 16.5635C3.15423 16.5635 2.81023 16.4197 2.52623 16.132C2.24206 15.8444 2.09998 15.4986 2.09998 15.0948C2.09998 14.6908 2.24381 14.3468 2.53148 14.0628C2.81914 13.7786 3.16489 13.6365 3.56873 13.6365C3.97273 13.6365 4.31673 13.7804 4.60073 14.068C4.88489 14.3557 5.02698 14.7014 5.02698 15.1053C5.02698 15.5093 4.88314 15.8533 4.59548 16.1373C4.30781 16.4214 3.96206 16.5635 3.55823 16.5635ZM3.55823 11.4635C3.15423 11.4635 2.81023 11.3197 2.52623 11.032C2.24206 10.7444 2.09998 10.3986 2.09998 9.99477C2.09998 9.59077 2.24381 9.24677 2.53148 8.96277C2.81914 8.67861 3.16489 8.53652 3.56873 8.53652C3.97273 8.53652 4.31673 8.68036 4.60073 8.96802C4.88489 9.25569 5.02698 9.60144 5.02698 10.0053C5.02698 10.4093 4.88314 10.7533 4.59548 11.0373C4.30781 11.3214 3.96206 11.4635 3.55823 11.4635ZM3.55823 6.36352C3.15423 6.36352 2.81023 6.21969 2.52623 5.93202C2.24206 5.64436 2.09998 5.29861 2.09998 4.89477C2.09998 4.49077 2.24381 4.14677 2.53148 3.86277C2.81914 3.57861 3.16489 3.43652 3.56873 3.43652C3.97273 3.43652 4.31673 3.58036 4.60073 3.86802C4.88489 4.15569 5.02698 4.50144 5.02698 4.90527C5.02698 5.30927 4.88314 5.65327 4.59548 5.93727C4.30781 6.22144 3.96206 6.36352 3.55823 6.36352Z" fill="#18181B"/>
</g>
</svg>
