<svg width="24" height="24" viewBox="0 0 24 24" fill="none" xmlns="http://www.w3.org/2000/svg">
<g id="agency-icons/mini/money-lhdn">
<g id="Group 47">
<path id="Subtract" fill-rule="evenodd" clip-rule="evenodd" d="M12 6C8.68629 6 6 8.68629 6 12V16C6 19.3137 8.68629 22 12 22C15.3137 22 18 19.3137 18 16V12C18 8.68629 15.3137 6 12 6ZM10.75 12.5C10.75 12.0858 11.0858 11.75 11.5 11.75H12H12.7929C13.0467 11.75 13.2902 11.8508 13.4697 12.0303C13.7626 12.3232 14.2374 12.3232 14.5303 12.0303C14.8232 11.7374 14.8232 11.2626 14.5303 10.9697C14.0695 10.5089 13.4446 10.25 12.7929 10.25H12.75V10C12.75 9.58579 12.4142 9.25 12 9.25C11.5858 9.25 11.25 9.58579 11.25 10V10.2637C10.125 10.3881 9.25 11.3419 9.25 12.5C9.25 13.7426 10.2574 14.75 11.5 14.75H12.5C12.9142 14.75 13.25 15.0858 13.25 15.5C13.25 15.9142 12.9142 16.25 12.5 16.25H12H11.2071C10.9533 16.25 10.7098 16.1492 10.5303 15.9697C10.2374 15.6768 9.76256 15.6768 9.46967 15.9697C9.17678 16.2626 9.17678 16.7374 9.46967 17.0303C9.93047 17.4911 10.5554 17.75 11.2071 17.75H11.25V18C11.25 18.4142 11.5858 18.75 12 18.75C12.4142 18.75 12.75 18.4142 12.75 18V17.7363C13.875 17.6119 14.75 16.6581 14.75 15.5C14.75 14.2574 13.7426 13.25 12.5 13.25H11.5C11.0858 13.25 10.75 12.9142 10.75 12.5Z" fill="#27272A"/>
<path id="Subtract_2" fill-rule="evenodd" clip-rule="evenodd" d="M10.2482 6.39633L9.02554 2.6561C8.89971 2.27116 9.25979 1.90415 9.64706 2.02262L11.849 2.69623C11.9443 2.72539 12.0462 2.72539 12.1415 2.69623L14.3435 2.02262C14.7308 1.90414 15.0908 2.27116 14.965 2.6561L13.7424 6.39633C13.6752 6.60191 13.4834 6.74097 13.2671 6.74097H12.4957V4.24097C12.4957 3.96483 12.2719 3.74097 11.9957 3.74097C11.7196 3.74097 11.4957 3.96483 11.4957 4.24097V6.74097H10.7234C10.5071 6.74097 10.3154 6.60191 10.2482 6.39633Z" fill="#27272A"/>
</g>
</g>
</svg>
