<svg width="24" height="24" viewBox="0 0 24 24" fill="none" xmlns="http://www.w3.org/2000/svg">
<g id="agency-icons/mini/car-jpj">
<g id="Group 32">
<path id="Vector 30" d="M4 11L5.54415 6.36754C5.81638 5.55086 6.58066 5 7.44152 5H16.5585C17.4193 5 18.1836 5.55086 18.4558 6.36754L20 11" stroke="#27272A" stroke-width="2" stroke-linejoin="round"/>
<path id="Vector 31" d="M22 9.5V9.5C21.042 9.5 20.387 10.4675 20.7428 11.357L20.8847 11.7116C20.9609 11.9021 21 12.1054 21 12.3106V16H3V12.3106C3 12.1054 3.03915 11.9021 3.11535 11.7116L3.25722 11.357C3.61299 10.4675 2.95795 9.5 2 9.5V9.5" stroke="#27272A" stroke-width="2" stroke-linecap="round"/>
<path id="Subtract" fill-rule="evenodd" clip-rule="evenodd" d="M3 10H21V16H3V10ZM4 13C4 12.4477 4.44772 12 5 12H7C7.55228 12 8 12.4477 8 13C8 13.5523 7.55228 14 7 14H5C4.44772 14 4 13.5523 4 13ZM17 12C16.4477 12 16 12.4477 16 13C16 13.5523 16.4477 14 17 14H19C19.5523 14 20 13.5523 20 13C20 12.4477 19.5523 12 19 12H17Z" fill="#27272A"/>
<path id="Vector 32" d="M4 17V18" stroke="#27272A" stroke-width="4" stroke-linecap="round" stroke-linejoin="round"/>
<path id="Vector 33" d="M20 17V18" stroke="#27272A" stroke-width="4" stroke-linecap="round" stroke-linejoin="round"/>
</g>
</g>
</svg>
