<svg width="32" height="32" viewBox="0 0 32 32" fill="none" xmlns="http://www.w3.org/2000/svg">
<g id="agency-icon/unhcr" clip-path="url(#clip0_14237_1220)">
<g id="agency-icons/mini/unhcr">
<g id="Group 52">
<g id="Group 51">
<path id="Vector 133" d="M9.57361 12.0312L13.9365 8.03189C14.5806 7.44144 14.9474 6.60775 14.9474 5.73395C14.9474 5.44123 14.6068 5.28049 14.3808 5.46658L7.45924 11.1667C6.53527 11.9276 6 13.0618 6 14.2588V14.357C6 17.2376 6.21997 20.114 6.65798 22.9611L6.9404 24.7968C7.00497 25.2165 7.36609 25.5263 7.79073 25.5263H9.09326C9.68927 25.5263 10.153 25.0083 10.0871 24.4159L9.68421 20.7895C10.3746 20.0991 10.8776 19.2442 11.1458 18.3055L11.7895 16.0526L12.7481 11.2597C12.8036 10.9821 12.6664 10.7016 12.4132 10.575C12.0798 10.4083 11.6755 10.5671 11.5446 10.9161L10.3095 14.2097C10.2459 14.3794 10.1198 14.519 9.95776 14.6001C9.54827 14.8048 9.05256 14.5787 8.94152 14.1345C8.75053 13.3705 8.99312 12.5633 9.57361 12.0312Z" fill="#18181B"/>
<path id="Vector 134" d="M22.4264 12.0312L18.0635 8.03189C17.4194 7.44144 17.0526 6.60775 17.0526 5.73395C17.0526 5.44123 17.3932 5.28049 17.6192 5.46658L24.5408 11.1667C25.4647 11.9276 26 13.0618 26 14.2588V14.357C26 17.2376 25.78 20.114 25.342 22.9611L25.0596 24.7968C24.995 25.2165 24.6339 25.5263 24.2093 25.5263H22.9067C22.3107 25.5263 21.847 25.0083 21.9129 24.4159L22.3158 20.7895C21.6254 20.0991 21.1224 19.2442 20.8542 18.3055L20.2105 16.0526L19.2519 11.2597C19.1964 10.9821 19.3336 10.7016 19.5868 10.575C19.9202 10.4083 20.3245 10.5671 20.4554 10.9161L21.6905 14.2097C21.7541 14.3794 21.8802 14.519 22.0422 14.6001C22.4517 14.8048 22.9474 14.5787 23.0585 14.1345C23.2495 13.3705 23.0069 12.5633 22.4264 12.0312Z" fill="#18181B"/>
<path id="Vector 135" d="M14.8833 13.0423L15.4737 12.8947V12.6985C15.4737 12.4907 15.3759 12.2951 15.2096 12.1704L14.9051 11.942C14.0694 11.3153 13.9294 10.1163 14.5981 9.31386C15.3277 8.43838 16.6723 8.43838 17.4019 9.31386C18.0706 10.1163 17.9305 11.3153 17.0949 11.942L16.7903 12.1704C16.6241 12.2951 16.5263 12.4907 16.5263 12.6985V12.8947L17.1166 13.0423C18.007 13.2649 18.6316 14.0649 18.6316 14.9826V21.8948C18.6316 22.447 18.1839 22.8948 17.6316 22.8948H17.5789V24.5263C17.5789 25.0786 17.1312 25.5263 16.5789 25.5263H15.421C14.8688 25.5263 14.421 25.0786 14.421 24.5263V22.8948H14.3684C13.8161 22.8948 13.3684 22.447 13.3684 21.8948V14.9826C13.3684 14.0649 13.993 13.2649 14.8833 13.0423Z" fill="#18181B"/>
</g>
</g>
</g>
</g>
<defs>
<clipPath id="clip0_14237_1220">
<rect width="32" height="32" fill="white"/>
</clipPath>
</defs>
</svg>
