<svg width="24" height="24" viewBox="0 0 24 24" fill="none" xmlns="http://www.w3.org/2000/svg">
<g id="agency-icons/mini/helping-hands-icu-jpm" clip-path="url(#clip0_14447_1236)">
<g id="Group 42">
<g id="Group 28">
<path id="Vector 63" d="M10 17.4821H13.5772C14.0012 17.4821 14.2769 17.0359 14.0873 16.6567C13.7237 15.9296 13.0007 15.4509 12.1893 15.4001L8.19235 15.1502C6.44576 15.041 4.71154 15.5075 3.25545 16.4782L1.76732 17.4703C1.33386 17.7592 1.19487 18.3326 1.44786 18.788L3.06175 21.693C3.30681 22.1341 3.85581 22.3039 4.30717 22.0783C5.73234 21.3658 7.34657 21.1231 8.91823 21.385L11.0066 21.733C11.9689 21.8933 12.9566 21.6964 13.7839 21.1794L19.6316 17.5248C20.0119 17.2871 19.9853 16.7246 19.5841 16.524C18.9057 16.1847 18.1035 16.2021 17.4405 16.5705L14.8096 18.0323C14.2786 18.3273 13.6812 18.4821 13.0738 18.4821H10C9.72386 18.4821 9.5 18.2582 9.5 17.9821C9.5 17.7059 9.72386 17.4821 10 17.4821Z" fill="#27272A"/>
<path id="Subtract" fill-rule="evenodd" clip-rule="evenodd" d="M15.6227 18.4382L16.0002 18.4815L16.0929 18.1769L15.6227 18.4382ZM14.6672 16.1511C14.6994 16.2064 14.73 16.2629 14.7588 16.3206C14.8929 16.5888 14.9264 16.8714 14.8804 17.1346L16.7211 16.1119L16.8696 15.6238C16.9423 15.3849 16.8113 15.1315 16.5744 15.0526C15.9492 14.8443 15.264 15.1063 14.9372 15.6785L14.6672 16.1511Z" fill="#27272A"/>
<path id="Subtract_2" fill-rule="evenodd" clip-rule="evenodd" d="M14.1333 15.4763L14.3877 14.5859C14.4502 14.367 14.3292 14.1377 14.1133 14.0657C13.5129 13.8656 12.8618 14.1363 12.5762 14.691C13.1657 14.7954 13.706 15.0712 14.1333 15.4763ZM11.699 16.731L11.9539 16.1357L12.143 16.1476C12.5838 16.1751 12.9858 16.3909 13.2525 16.731H11.699Z" fill="#27272A"/>
</g>
<g id="Group 29">
<path id="Vector 63_2" d="M14.4366 8.15831L10.9813 9.08416C10.5718 9.19389 10.4209 9.69622 10.7022 10.0134C11.2416 10.6217 12.0639 10.897 12.8608 10.736L16.7862 9.94291C18.5016 9.59636 20.056 8.69691 21.2112 7.38239L22.3919 6.03895C22.7358 5.64764 22.7216 5.05787 22.3594 4.68348L20.0486 2.29516C19.6977 1.93251 19.1235 1.91053 18.7459 2.2453C17.5537 3.30234 16.0573 3.95456 14.4714 4.10839L12.3642 4.31279C11.3931 4.40697 10.49 4.85278 9.82474 5.56631L5.12221 10.6099C4.81632 10.9379 4.98768 11.4743 5.4271 11.5643C6.17022 11.7164 6.94054 11.492 7.48566 10.9646L9.64854 8.87169C10.0851 8.44932 10.622 8.14516 11.2087 7.98795L14.1778 7.19239C14.4446 7.12091 14.7187 7.27921 14.7902 7.54594C14.8617 7.81267 14.7034 8.08684 14.4366 8.15831Z" fill="#27272A"/>
<path id="Subtract_3" fill-rule="evenodd" clip-rule="evenodd" d="M8.75818 8.69L8.38227 8.74584L8.37159 9.06407L8.75818 8.69ZM10.273 10.6518C10.2276 10.6068 10.1835 10.5601 10.1407 10.5118C9.94176 10.2875 9.8362 10.0232 9.81253 9.75705L8.29925 11.2213L8.28215 11.7312C8.27378 11.9808 8.46582 12.1916 8.71514 12.2066C9.37289 12.2459 9.96697 11.8155 10.1345 11.1783L10.273 10.6518Z" fill="#27272A"/>
<path id="Subtract_4" fill-rule="evenodd" clip-rule="evenodd" d="M10.9636 11.1655L10.9483 12.0914C10.9446 12.319 11.1207 12.5092 11.348 12.5229C11.9797 12.5608 12.5386 12.1307 12.6708 11.5211C12.0744 11.5728 11.4811 11.4462 10.9636 11.1655ZM12.9902 9.32354L12.898 9.96449L12.7123 10.002C12.2794 10.0895 11.8352 9.9851 11.4896 9.72561L12.9902 9.32354Z" fill="#27272A"/>
</g>
</g>
</g>
<defs>
<clipPath id="clip0_14447_1236">
<rect width="24" height="24" fill="white"/>
</clipPath>
</defs>
</svg>
