<svg width="20" height="20" viewBox="0 0 20 20" fill="none" xmlns="http://www.w3.org/2000/svg">
<g id="WYSIWYG Icon">
<path id="Vector" d="M2.09998 17.9V17.0077H4.49998V16.1H3.29998V15.2077H4.49998V14.3H2.09998V13.4077H4.94623C5.07256 13.4077 5.17848 13.4505 5.26398 13.536C5.34948 13.6215 5.39223 13.7274 5.39223 13.8537V15.2462C5.39223 15.3726 5.34948 15.4785 5.26398 15.564C5.17848 15.6495 5.07256 15.6922 4.94623 15.6922C5.07256 15.6922 5.17848 15.735 5.26398 15.8205C5.34948 15.906 5.39223 16.012 5.39223 16.1385V17.4537C5.39223 17.5802 5.34948 17.6862 5.26398 17.7717C5.17848 17.8572 5.07256 17.9 4.94623 17.9H2.09998ZM2.09998 12.2462V9.99998C2.09998 9.87364 2.14273 9.76764 2.22823 9.68198C2.31373 9.59648 2.41973 9.55373 2.54623 9.55373H4.49998V8.64622H2.09998V7.75373H4.94623C5.07256 7.75373 5.17848 7.79648 5.26398 7.88198C5.34948 7.96764 5.39223 8.07364 5.39223 8.19998V9.99998C5.39223 10.1263 5.34948 10.2323 5.26398 10.318C5.17848 10.4035 5.07256 10.4462 4.94623 10.4462H2.99223V11.3537H5.39223V12.2462H2.09998ZM3.29998 6.59223V2.99223H2.09998V2.09998H4.19223V6.59223H3.29998ZM7.30773 15.75V14.45H17.9V15.75H7.30773ZM7.30773 10.65V9.34998H17.9V10.65H7.30773ZM7.30773 5.54998V4.24998H17.9V5.54998H7.30773Z" fill="#18181B"/>
</g>
</svg>
