<svg width="20" height="20" viewBox="0 0 20 20" fill="none" xmlns="http://www.w3.org/2000/svg">
<g id="Type=RSS" clip-path="url(#clip0_12121_1213)">
<path id="Subtract" fill-rule="evenodd" clip-rule="evenodd" d="M3.75 0H16.25C18.3211 0 20 1.67893 20 3.75V16.25C20 18.3211 18.3211 20 16.25 20H3.75C1.67893 20 0 18.3211 0 16.25V3.75C0 1.67893 1.67893 0 3.75 0ZM7.5 15C7.5 16.3807 6.38071 17.5 5 17.5C3.61929 17.5 2.5 16.3807 2.5 15C2.5 13.6193 3.61929 12.5 5 12.5C6.38071 12.5 7.5 13.6193 7.5 15ZM2.5 10C4.48912 10 6.39678 10.7902 7.8033 12.1967C9.20982 13.6032 10 15.5109 10 17.5H12.5C12.5 14.8478 11.4464 12.3043 9.57107 10.4289C7.6957 8.55357 5.15216 7.5 2.5 7.5V10ZM7.28354 5.95151C5.76697 5.32332 4.14152 5 2.5 5V2.5C6.47825 2.5 10.2936 4.08035 13.1066 6.8934C15.9196 9.70644 17.5 13.5218 17.5 17.5H15C15 15.8585 14.6767 14.233 14.0485 12.7165C13.4203 11.1999 12.4996 9.8219 11.3388 8.66117C10.1781 7.50043 8.80011 6.57969 7.28354 5.95151Z" fill="#18181B"/>
</g>
<defs>
<clipPath id="clip0_12121_1213">
<rect width="20" height="20" fill="white"/>
</clipPath>
</defs>
</svg>
