<svg width="20" height="20" viewBox="0 0 20 20" fill="none" xmlns="http://www.w3.org/2000/svg">
<g id="WYSIWYG Icon">
<path id="Vector" d="M10.15 16.7923C9.03986 16.7923 8.07319 16.4839 7.25002 15.8673C6.42702 15.2506 5.87194 14.4378 5.58477 13.4288L7.01352 12.8635C7.32502 13.6943 7.74619 14.32 8.27702 14.7405C8.80769 15.161 9.44227 15.3713 10.1808 15.3713C11.0078 15.3713 11.6869 15.1633 12.2183 14.7473C12.7498 14.3311 13.0155 13.7653 13.0155 13.05C13.0155 12.7063 12.9639 12.4093 12.8605 12.1588C12.7574 11.9081 12.5962 11.6718 12.377 11.45H14.202C14.3237 11.6205 14.4099 11.8339 14.4605 12.0903C14.5112 12.3468 14.5365 12.6583 14.5365 13.025C14.5365 14.1288 14.1289 15.0327 13.3135 15.7365C12.498 16.4403 11.4435 16.7923 10.15 16.7923ZM0.650024 9.65002V8.35002H19.35V9.65002H0.650024ZM10 3.04626C10.9642 3.04626 11.7498 3.23118 12.3568 3.60101C12.9638 3.97085 13.4839 4.56726 13.9173 5.39026L12.573 5.98076C12.3385 5.4936 11.9895 5.1071 11.526 4.82126C11.0625 4.53526 10.5641 4.39227 10.0308 4.39227C9.24111 4.39227 8.61002 4.60802 8.13752 5.03952C7.66502 5.47085 7.44736 5.97435 7.48452 6.55002H5.96352C5.92636 5.56418 6.29369 4.73376 7.06552 4.05876C7.83719 3.38376 8.81536 3.04626 10 3.04626Z" fill="#18181B"/>
</g>
</svg>
