<svg width="20" height="20" viewBox="0 0 20 20" fill="none" xmlns="http://www.w3.org/2000/svg">
<g id="WYSIWYG Icon">
<g id="Vector">
<path d="M11.9779 6.96148L9.68935 9.24998H6.25V10.75H8.18935L5.90085 13.0385H5.0385C4.19867 13.0385 3.48233 12.742 2.8895 12.149C2.2965 11.556 2 10.8396 2 9.99998C2 9.16032 2.2965 8.44398 2.8895 7.85098C3.48233 7.25798 4.19867 6.96148 5.0385 6.96148H8.80775V5.46148H5.0385C3.78283 5.46148 2.7125 5.90415 1.8275 6.78948C0.9425 7.67465 0.5 8.74498 0.5 10.0005C0.5 11.256 0.9425 12.3261 1.8275 13.211C2.56756 13.951 3.43721 14.3817 4.43646 14.5029L2.21967 16.7197L3.28033 17.7803L17.7803 3.28033L16.7197 2.21967L13.4779 5.46148H11.1923V6.96148H11.9779Z" fill="#18181B"/>
<path d="M12.8092 10.75L13.75 9.8092V10.75H12.8092Z" fill="#18181B"/>
<path d="M16.2984 7.26081C16.5909 7.40526 16.8616 7.60198 17.1105 7.85098C17.7035 8.44398 18 9.16032 18 9.99998C18 10.8396 17.7035 11.556 17.1105 12.149C16.5177 12.742 15.8013 13.0385 14.9615 13.0385H11.1923V14.5385H14.9615C16.2172 14.5385 17.2875 14.0958 18.1725 13.2105C19.0575 12.3253 19.5 11.255 19.5 9.99948C19.5 8.74398 19.0575 7.67382 18.1725 6.78898C17.9291 6.54554 17.6716 6.33558 17.4001 6.1591L16.2984 7.26081Z" fill="#18181B"/>
</g>
</g>
</svg>
