<svg width="20" height="20" viewBox="0 0 20 20" fill="none" xmlns="http://www.w3.org/2000/svg">
<g id="SocMed Icon/Whatsapp">
<path id="Vector" d="M0 20L1.40583 14.8642C0.538333 13.3608 0.0825 11.6567 0.0833333 9.90917C0.0858333 4.44583 4.53167 0 9.99417 0C12.645 0.000833333 15.1333 1.03333 17.005 2.90667C18.8758 4.78 19.9058 7.27 19.905 9.91833C19.9025 15.3825 15.4567 19.8283 9.99417 19.8283C8.33583 19.8275 6.70167 19.4117 5.25417 18.6217L0 20ZM5.4975 16.8275C6.89417 17.6567 8.2275 18.1533 9.99083 18.1542C14.5308 18.1542 18.2292 14.4592 18.2317 9.91667C18.2333 5.365 14.5525 1.675 9.9975 1.67333C5.45417 1.67333 1.75833 5.36833 1.75667 9.91C1.75583 11.7642 2.29917 13.1525 3.21167 14.605L2.37917 17.645L5.4975 16.8275ZM14.9867 12.2742C14.925 12.1708 14.76 12.1092 14.5117 11.985C14.2642 11.8608 13.0467 11.2617 12.8192 11.1792C12.5925 11.0967 12.4275 11.055 12.2617 11.3033C12.0967 11.5508 11.6217 12.1092 11.4775 12.2742C11.3333 12.4392 11.1883 12.46 10.9408 12.3358C10.6933 12.2117 9.895 11.9508 8.94917 11.1067C8.21333 10.45 7.71583 9.63917 7.57167 9.39083C7.4275 9.14333 7.55667 9.00917 7.68 8.88583C7.79167 8.775 7.9275 8.59667 8.05167 8.45167C8.1775 8.30833 8.21833 8.205 8.30167 8.03917C8.38417 7.87417 8.34333 7.72917 8.28083 7.605C8.21833 7.48167 7.72333 6.2625 7.5175 5.76667C7.31583 5.28417 7.11167 5.34917 6.96 5.34167L6.485 5.33333C6.32 5.33333 6.05167 5.395 5.825 5.64333C5.59833 5.89167 4.95833 6.49 4.95833 7.70917C4.95833 8.92833 5.84583 10.1058 5.96917 10.2708C6.09333 10.4358 7.715 12.9375 10.1992 14.01C10.79 14.265 11.2517 14.4175 11.6108 14.5317C12.2042 14.72 12.7442 14.6933 13.1708 14.63C13.6467 14.5592 14.6358 14.0308 14.8425 13.4525C15.0492 12.8733 15.0492 12.3775 14.9867 12.2742Z" fill="#18181B"/>
</g>
</svg>
