<svg width="31" height="9" viewBox="0 0 31 9" fill="none" xmlns="http://www.w3.org/2000/svg">
<path d="M0.860795 9V0.272727H4.2017C4.83239 0.272727 5.35653 0.372159 5.77415 0.571022C6.1946 0.767045 6.50852 1.03551 6.71591 1.37642C6.92614 1.71733 7.03125 2.10369 7.03125 2.53551C7.03125 2.89062 6.96307 3.1946 6.8267 3.44744C6.69034 3.69744 6.5071 3.90057 6.27699 4.05682C6.04688 4.21307 5.78977 4.32528 5.50568 4.39347V4.47869C5.81534 4.49574 6.11222 4.59091 6.39631 4.7642C6.68324 4.93466 6.91761 5.17614 7.09943 5.48864C7.28125 5.80114 7.37216 6.17898 7.37216 6.62216C7.37216 7.07386 7.26278 7.48011 7.04403 7.84091C6.82528 8.19886 6.49574 8.48153 6.0554 8.68892C5.61506 8.89631 5.06108 9 4.39347 9H0.860795ZM2.44176 7.67898H4.14205C4.71591 7.67898 5.12926 7.5696 5.3821 7.35085C5.63778 7.12926 5.76562 6.84517 5.76562 6.49858C5.76562 6.24006 5.7017 6.0071 5.57386 5.79972C5.44602 5.58949 5.2642 5.42472 5.02841 5.3054C4.79261 5.18324 4.51136 5.12216 4.18466 5.12216H2.44176V7.67898ZM2.44176 3.98438H4.00568C4.27841 3.98438 4.52415 3.93466 4.7429 3.83523C4.96165 3.73295 5.13352 3.58949 5.25852 3.40483C5.38636 3.21733 5.45028 2.99574 5.45028 2.74006C5.45028 2.40199 5.33097 2.12358 5.09233 1.90483C4.85653 1.68608 4.50568 1.5767 4.03977 1.5767H2.44176V3.98438ZM8.74751 9V0.272727H14.4237V1.59801H10.3285V3.96733H14.1296V5.29261H10.3285V7.67472H14.4577V9H8.74751ZM15.6531 1.59801V0.272727H22.6161V1.59801H19.9187V9H18.3505V1.59801H15.6531ZM24.0245 9H22.337L25.4094 0.272727H27.3612L30.4379 9H28.7504L26.4194 2.0625H26.3512L24.0245 9ZM24.0799 5.57812H28.6822V6.84801H24.0799V5.57812Z" fill="#BD5A30"/>
</svg>
