<svg width="32" height="32" viewBox="0 0 32 32" fill="none" xmlns="http://www.w3.org/2000/svg">
	<g clip-path="url(#clip0_613_443)">
		<path
			d="M26.9474 15.1579C29.7378 15.1579 32 12.8957 32 10.1053V0H16.8421V2.52631C16.8421 6.71205 20.2353 10.1053 24.421 10.1053H16.8421C16.8421 12.8957 19.1042 15.1579 21.8947 15.1579H26.9474Z"
			fill="url(#paint0_linear_613_443)" />
		<path
			d="M15.1579 24.4211C15.1579 20.2353 11.7647 16.8421 7.57894 16.8421H0V32H7.57894C11.7647 32 15.1579 28.6068 15.1579 24.4211Z"
			fill="url(#paint1_linear_613_443)" />
		<path
			d="M16.8421 21.8947C16.8421 24.6852 19.1042 26.9474 21.8947 26.9474H16.8421V32H26.9474C29.7378 32 32 29.7379 32 26.9474C32 24.1569 29.7378 21.8947 26.9474 21.8947H32V16.8421H21.8947C19.1042 16.8421 16.8421 19.1043 16.8421 21.8947Z"
			fill="url(#paint2_linear_613_443)" />
		<path
			d="M3.78947 0C1.6966 0 0 1.6966 0 3.78947V15.1579H15.1579V3.78947C15.1579 1.6966 13.4613 0 11.3684 0C9.27555 0 7.57894 1.6966 7.57894 3.78947C7.57894 1.6966 5.88234 0 3.78947 0Z"
			fill="url(#paint3_linear_613_443)" />
	</g>
	<defs>
		<linearGradient id="paint0_linear_613_443" x1="16" y1="3" x2="28" y2="32"
			gradientUnits="userSpaceOnUse">
			<stop stop-color="#1351F0" />
			<stop offset="0.592305" stop-color="#24B9F9" />
			<stop offset="1" stop-color="#FFEAA1" />
		</linearGradient>
		<linearGradient id="paint1_linear_613_443" x1="16" y1="3" x2="28" y2="32"
			gradientUnits="userSpaceOnUse">
			<stop stop-color="#1351F0" />
			<stop offset="0.592305" stop-color="#24B9F9" />
			<stop offset="1" stop-color="#FFEAA1" />
		</linearGradient>
		<linearGradient id="paint2_linear_613_443" x1="16" y1="3" x2="28" y2="32"
			gradientUnits="userSpaceOnUse">
			<stop stop-color="#1351F0" />
			<stop offset="0.592305" stop-color="#24B9F9" />
			<stop offset="1" stop-color="#FFEAA1" />
		</linearGradient>
		<linearGradient id="paint3_linear_613_443" x1="16" y1="3" x2="28" y2="32"
			gradientUnits="userSpaceOnUse">
			<stop stop-color="#1351F0" />
			<stop offset="0.592305" stop-color="#24B9F9" />
			<stop offset="1" stop-color="#FFEAA1" />
		</linearGradient>
		<clipPath id="clip0_613_443">
			<rect width="32" height="32" fill="white" />
		</clipPath>
	</defs>
</svg>