<svg width="94" height="32" viewBox="0 0 94 32" fill="none" xmlns="http://www.w3.org/2000/svg">
	<g clip-path="url(#clip0_414_581)">
		<path
			d="M26.9474 15.1579C29.7378 15.1579 32 12.8957 32 10.1053V0H16.8421V2.52631C16.8421 6.71205 20.2353 10.1053 24.421 10.1053H16.8421C16.8421 12.8957 19.1042 15.1579 21.8947 15.1579H26.9474Z"
			fill="url(#paint0_linear_414_581)" />
		<path
			d="M15.1579 24.4211C15.1579 20.2353 11.7647 16.8421 7.57894 16.8421H0V32H7.57894C11.7647 32 15.1579 28.6068 15.1579 24.4211Z"
			fill="url(#paint1_linear_414_581)" />
		<path
			d="M16.8421 21.8947C16.8421 24.6852 19.1042 26.9474 21.8947 26.9474H16.8421V32H26.9474C29.7378 32 32 29.7379 32 26.9474C32 24.1569 29.7378 21.8947 26.9474 21.8947H32V16.8421H21.8947C19.1042 16.8421 16.8421 19.1043 16.8421 21.8947Z"
			fill="url(#paint2_linear_414_581)" />
		<path
			d="M3.78947 0C1.6966 0 0 1.6966 0 3.78947V15.1579H15.1579V3.78947C15.1579 1.6966 13.4613 0 11.3684 0C9.27555 0 7.57894 1.6966 7.57894 3.78947C7.57894 1.6966 5.88234 0 3.78947 0Z"
			fill="url(#paint3_linear_414_581)" />
	</g>
	<path
		d="M56.94 9.436V22H54.42V13.828L51.054 22H49.146L45.762 13.828V22H43.242V9.436H46.104L50.1 18.778L54.096 9.436H56.94ZM69.4215 9.436L65.1735 17.626V22H62.6535V17.626L58.3875 9.436H61.2315L63.9315 15.178L66.6135 9.436H69.4215ZM75.2668 9.436C76.5868 9.436 77.7448 9.694 78.7408 10.21C79.7488 10.726 80.5228 11.464 81.0628 12.424C81.6148 13.372 81.8908 14.476 81.8908 15.736C81.8908 16.996 81.6148 18.1 81.0628 19.048C80.5228 19.984 79.7488 20.71 78.7408 21.226C77.7448 21.742 76.5868 22 75.2668 22H70.8748V9.436H75.2668ZM75.1768 19.858C76.4968 19.858 77.5168 19.498 78.2368 18.778C78.9568 18.058 79.3168 17.044 79.3168 15.736C79.3168 14.428 78.9568 13.408 78.2368 12.676C77.5168 11.932 76.4968 11.56 75.1768 11.56H73.3948V19.858H75.1768ZM88.1152 22.126C87.2392 22.126 86.4472 21.976 85.7392 21.676C85.0432 21.376 84.4912 20.944 84.0832 20.38C83.6752 19.816 83.4652 19.15 83.4532 18.382H86.1532C86.1892 18.898 86.3692 19.306 86.6932 19.606C87.0292 19.906 87.4852 20.056 88.0612 20.056C88.6492 20.056 89.1112 19.918 89.4472 19.642C89.7832 19.354 89.9512 18.982 89.9512 18.526C89.9512 18.154 89.8372 17.848 89.6092 17.608C89.3812 17.368 89.0932 17.182 88.7452 17.05C88.4092 16.906 87.9412 16.75 87.3412 16.582C86.5252 16.342 85.8592 16.108 85.3432 15.88C84.8392 15.64 84.4012 15.286 84.0292 14.818C83.6692 14.338 83.4892 13.702 83.4892 12.91C83.4892 12.166 83.6752 11.518 84.0472 10.966C84.4192 10.414 84.9412 9.994 85.6132 9.706C86.2852 9.406 87.0532 9.256 87.9172 9.256C89.2132 9.256 90.2632 9.574 91.0672 10.21C91.8832 10.834 92.3332 11.71 92.4172 12.838H89.6452C89.6212 12.406 89.4352 12.052 89.0872 11.776C88.7512 11.488 88.3012 11.344 87.7372 11.344C87.2452 11.344 86.8492 11.47 86.5492 11.722C86.2612 11.974 86.1172 12.34 86.1172 12.82C86.1172 13.156 86.2252 13.438 86.4412 13.666C86.6692 13.882 86.9452 14.062 87.2692 14.206C87.6052 14.338 88.0732 14.494 88.6732 14.674C89.4892 14.914 90.1552 15.154 90.6712 15.394C91.1872 15.634 91.6312 15.994 92.0032 16.474C92.3752 16.954 92.5612 17.584 92.5612 18.364C92.5612 19.036 92.3872 19.66 92.0392 20.236C91.6912 20.812 91.1812 21.274 90.5092 21.622C89.8372 21.958 89.0392 22.126 88.1152 22.126Z"
		fill="#18181B" />
	<defs>
		<linearGradient id="paint0_linear_414_581" x1="16" y1="3" x2="28" y2="32"
			gradientUnits="userSpaceOnUse">
			<stop stop-color="#1351F0" />
			<stop offset="0.592305" stop-color="#24B9F9" />
			<stop offset="1" stop-color="#FFEAA1" />
		</linearGradient>
		<linearGradient id="paint1_linear_414_581" x1="16" y1="3" x2="28" y2="32"
			gradientUnits="userSpaceOnUse">
			<stop stop-color="#1351F0" />
			<stop offset="0.592305" stop-color="#24B9F9" />
			<stop offset="1" stop-color="#FFEAA1" />
		</linearGradient>
		<linearGradient id="paint2_linear_414_581" x1="16" y1="3" x2="28" y2="32"
			gradientUnits="userSpaceOnUse">
			<stop stop-color="#1351F0" />
			<stop offset="0.592305" stop-color="#24B9F9" />
			<stop offset="1" stop-color="#FFEAA1" />
		</linearGradient>
		<linearGradient id="paint3_linear_414_581" x1="16" y1="3" x2="28" y2="32"
			gradientUnits="userSpaceOnUse">
			<stop stop-color="#1351F0" />
			<stop offset="0.592305" stop-color="#24B9F9" />
			<stop offset="1" stop-color="#FFEAA1" />
		</linearGradient>
		<clipPath id="clip0_414_581">
			<rect width="32" height="32" fill="white" />
		</clipPath>
	</defs>
</svg>
	