<svg width="95" height="32" viewBox="0 0 95 32" fill="none" xmlns="http://www.w3.org/2000/svg">
	<g clip-path="url(#clip0_80_4889)">
		<path
			d="M0.333344 16.8421H7.91229C12.098 16.8421 15.4912 20.2353 15.4912 24.4211C15.4912 28.6068 12.098 32 7.91229 32H0.333344V16.8421Z"
			fill="url(#paint0_linear_80_4889)" />
		<path
			d="M17.1754 21.8947C17.1754 19.1043 19.4376 16.8421 22.2281 16.8421H32.3333V21.8947H17.1754Z"
			fill="url(#paint1_linear_80_4889)" />
		<path d="M17.1754 26.9474H32.3333C32.3333 29.7379 30.0712 32 27.2807 32H17.1754V26.9474Z"
			fill="url(#paint2_linear_80_4889)" />
		<path
			d="M17.1754 21.8947H27.2807C30.0712 21.8947 32.3333 24.1569 32.3333 26.9474H22.2281C19.4376 26.9474 17.1754 24.6852 17.1754 21.8947Z"
			fill="url(#paint3_linear_80_4889)" />
		<path
			d="M17.1754 0H32.3333V10.1053H24.7544C20.5686 10.1053 17.1754 6.71205 17.1754 2.52631V0Z"
			fill="url(#paint4_linear_80_4889)" />
		<path
			d="M17.1754 10.1053H32.3333C32.3333 12.8957 30.0712 15.1579 27.2807 15.1579H22.2281C19.4376 15.1579 17.1754 12.8957 17.1754 10.1053Z"
			fill="url(#paint5_linear_80_4889)" />
		<path
			d="M0.333344 3.78947C0.333344 1.6966 2.02995 0 4.12282 0C6.21568 0 7.91229 1.6966 7.91229 3.78947V15.1579H0.333344V3.78947Z"
			fill="url(#paint6_linear_80_4889)" />
		<path
			d="M7.91229 3.78947C7.91229 1.6966 9.60889 0 11.7018 0C13.7946 0 15.4912 1.6966 15.4912 3.78947V15.1579H7.91229V3.78947Z"
			fill="url(#paint7_linear_80_4889)" />
		<path
			d="M0.333344 3.78947C0.333344 1.6966 2.02995 0 4.12282 0C6.21568 0 7.91229 1.6966 7.91229 3.78947V15.1579H0.333344V3.78947Z"
			fill="url(#paint8_linear_80_4889)" />
		<path
			d="M7.91229 3.78947C7.91229 1.6966 9.60889 0 11.7018 0C13.7946 0 15.4912 1.6966 15.4912 3.78947V15.1579H7.91229V3.78947Z"
			fill="url(#paint9_linear_80_4889)" />
	</g>
	<path
		d="M57.2733 9.436V22H54.7533V13.828L51.3873 22H49.4793L46.0953 13.828V22H43.5753V9.436H46.4373L50.4333 18.778L54.4293 9.436H57.2733ZM69.7548 9.436L65.5068 17.626V22H62.9868V17.626L58.7208 9.436H61.5648L64.2648 15.178L66.9468 9.436H69.7548ZM75.6002 9.436C76.9202 9.436 78.0782 9.694 79.0742 10.21C80.0822 10.726 80.8562 11.464 81.3962 12.424C81.9482 13.372 82.2242 14.476 82.2242 15.736C82.2242 16.996 81.9482 18.1 81.3962 19.048C80.8562 19.984 80.0822 20.71 79.0742 21.226C78.0782 21.742 76.9202 22 75.6002 22H71.2082V9.436H75.6002ZM75.5102 19.858C76.8302 19.858 77.8502 19.498 78.5702 18.778C79.2902 18.058 79.6502 17.044 79.6502 15.736C79.6502 14.428 79.2902 13.408 78.5702 12.676C77.8502 11.932 76.8302 11.56 75.5102 11.56H73.7282V19.858H75.5102ZM88.4485 22.126C87.5725 22.126 86.7805 21.976 86.0725 21.676C85.3765 21.376 84.8245 20.944 84.4165 20.38C84.0085 19.816 83.7985 19.15 83.7865 18.382H86.4865C86.5225 18.898 86.7025 19.306 87.0265 19.606C87.3625 19.906 87.8185 20.056 88.3945 20.056C88.9825 20.056 89.4445 19.918 89.7805 19.642C90.1165 19.354 90.2845 18.982 90.2845 18.526C90.2845 18.154 90.1705 17.848 89.9425 17.608C89.7145 17.368 89.4265 17.182 89.0785 17.05C88.7425 16.906 88.2745 16.75 87.6745 16.582C86.8585 16.342 86.1925 16.108 85.6765 15.88C85.1725 15.64 84.7345 15.286 84.3625 14.818C84.0025 14.338 83.8225 13.702 83.8225 12.91C83.8225 12.166 84.0085 11.518 84.3805 10.966C84.7525 10.414 85.2745 9.994 85.9465 9.706C86.6185 9.406 87.3865 9.256 88.2505 9.256C89.5465 9.256 90.5965 9.574 91.4005 10.21C92.2165 10.834 92.6665 11.71 92.7505 12.838H89.9785C89.9545 12.406 89.7685 12.052 89.4205 11.776C89.0845 11.488 88.6345 11.344 88.0705 11.344C87.5785 11.344 87.1825 11.47 86.8825 11.722C86.5945 11.974 86.4505 12.34 86.4505 12.82C86.4505 13.156 86.5585 13.438 86.7745 13.666C87.0025 13.882 87.2785 14.062 87.6025 14.206C87.9385 14.338 88.4065 14.494 89.0065 14.674C89.8225 14.914 90.4885 15.154 91.0045 15.394C91.5205 15.634 91.9645 15.994 92.3365 16.474C92.7085 16.954 92.8945 17.584 92.8945 18.364C92.8945 19.036 92.7205 19.66 92.3725 20.236C92.0245 20.812 91.5145 21.274 90.8425 21.622C90.1705 21.958 89.3725 22.126 88.4485 22.126Z"
		fill="#18181B" />
	<defs>
		<linearGradient id="paint0_linear_80_4889" x1="16.3333" y1="3" x2="28.3333" y2="32"
			gradientUnits="userSpaceOnUse">
			<stop stop-color="#1351F0" />
			<stop offset="0.592305" stop-color="#24B9F9" />
			<stop offset="1" stop-color="#FFEAA1" />
		</linearGradient>
		<linearGradient id="paint1_linear_80_4889" x1="16.3333" y1="3" x2="28.3333" y2="32"
			gradientUnits="userSpaceOnUse">
			<stop stop-color="#1351F0" />
			<stop offset="0.592305" stop-color="#24B9F9" />
			<stop offset="1" stop-color="#FFEAA1" />
		</linearGradient>
		<linearGradient id="paint2_linear_80_4889" x1="16.3333" y1="3" x2="28.3333" y2="32"
			gradientUnits="userSpaceOnUse">
			<stop stop-color="#1351F0" />
			<stop offset="0.592305" stop-color="#24B9F9" />
			<stop offset="1" stop-color="#FFEAA1" />
		</linearGradient>
		<linearGradient id="paint3_linear_80_4889" x1="16.3333" y1="3" x2="28.3333" y2="32"
			gradientUnits="userSpaceOnUse">
			<stop stop-color="#1351F0" />
			<stop offset="0.592305" stop-color="#24B9F9" />
			<stop offset="1" stop-color="#FFEAA1" />
		</linearGradient>
		<linearGradient id="paint4_linear_80_4889" x1="16.3333" y1="3" x2="28.3333" y2="32"
			gradientUnits="userSpaceOnUse">
			<stop stop-color="#1351F0" />
			<stop offset="0.592305" stop-color="#24B9F9" />
			<stop offset="1" stop-color="#FFEAA1" />
		</linearGradient>
		<linearGradient id="paint5_linear_80_4889" x1="16.3333" y1="3" x2="28.3333" y2="32"
			gradientUnits="userSpaceOnUse">
			<stop stop-color="#1351F0" />
			<stop offset="0.592305" stop-color="#24B9F9" />
			<stop offset="1" stop-color="#FFEAA1" />
		</linearGradient>
		<linearGradient id="paint6_linear_80_4889" x1="16.3333" y1="3" x2="28.3333" y2="32"
			gradientUnits="userSpaceOnUse">
			<stop stop-color="#1351F0" />
			<stop offset="0.592305" stop-color="#24B9F9" />
			<stop offset="1" stop-color="#FFEAA1" />
		</linearGradient>
		<linearGradient id="paint7_linear_80_4889" x1="16.3333" y1="3" x2="28.3333" y2="32"
			gradientUnits="userSpaceOnUse">
			<stop stop-color="#1351F0" />
			<stop offset="0.592305" stop-color="#24B9F9" />
			<stop offset="1" stop-color="#FFEAA1" />
		</linearGradient>
		<linearGradient id="paint8_linear_80_4889" x1="16.3333" y1="3" x2="28.3333" y2="32"
			gradientUnits="userSpaceOnUse">
			<stop stop-color="#1351F0" />
			<stop offset="0.592305" stop-color="#24B9F9" />
			<stop offset="1" stop-color="#FFEAA1" />
		</linearGradient>
		<linearGradient id="paint9_linear_80_4889" x1="16.3333" y1="3" x2="28.3333" y2="32"
			gradientUnits="userSpaceOnUse">
			<stop stop-color="#1351F0" />
			<stop offset="0.592305" stop-color="#24B9F9" />
			<stop offset="1" stop-color="#FFEAA1" />
		</linearGradient>
		<clipPath id="clip0_80_4889">
			<rect width="32" height="32" fill="white" transform="translate(0.333344)" />
		</clipPath>
	</defs>
</svg>